<svg width="24" height="24" version="1.1" viewBox="0 0 6.3502 6.3502" xmlns="http://www.w3.org/2000/svg">
 <g transform="matrix(.046876 0 0 .046876 -1.708 -2.6665)">
  <g transform="matrix(.73931 0 0 .73931 27.518 5.4894)" stroke-linecap="round" stroke-linejoin="round">
   <path d="m103.68 115.62c-37.781 0-68.564 30.786-68.564 68.566-5e-6 37.781 30.784 68.564 68.564 68.564 37.781 0 68.564-30.784 68.564-68.564 0-37.781-30.784-68.566-68.564-68.566zm0 14.646c29.866 1e-5 53.92 24.054 53.92 53.92s-24.054 53.92-53.92 53.92-53.92-24.054-53.92-53.92c1e-6 -29.866 24.054-53.92 53.92-53.92z" color="#000000" fill="#f22836" style="-inkscape-stroke:none"/>
   <g stroke-opacity=".6494" stroke-width="14.645">
    <path d="m79.975 198.28c-1e-6 5.854-4.7456 10.6-10.6 10.6-4.4041 0-7.8165-2.8448-9.8888-6.4342-2.0181-3.4954-9.4733-24.515 7.2058-50.641-5.3062 23.195 7.8538 36.888 9.7263 38.554 2.182 1.9415 3.5564 4.7709 3.5564 7.9213z" fill="#f22836"/>
    <path d="m46.034 73.3c60.961-12.111 55.227 31.419 53.603 40.352-6.7784-13.196-13.933-22.009-27.819-28.086 8.5128 4.2153 19.095 13.491 25.63 28.369-14.352 2.5416-28.014-7.8672-32.833-17.544-4.2899-8.6152-2.4762-14.962-18.581-23.091z" fill="#4aa545"/>
    <path d="m148.16 71.266c-52.577-10.126-46.42 26.676-45.421 33.883 5.9281-11.998 10.291-17.426 23.879-24.254-8.3582 5.3787-14.618 9.6776-22.199 24.446 15.987 1.4943 25.079-8.5035 29.138-17.821 2.557-5.8695 3.2917-11.586 14.604-16.254z" fill="#4aa545"/>
   </g>
  </g>
 </g>
</svg>
